<svg id="Layer_1" data-name="Layer 1" xmlns="http://www.w3.org/2000/svg" viewBox="0 0 1492 445"><defs><style>.cls-1{fill:#f6ece9;}</style></defs><title>nichedesignconference</title><path class="cls-1" d="M33.63,140,14.84,108.83V140H4.41V91.67H14.84l18.79,31.17V91.67H44V140Z"/><path class="cls-1" d="M57.13,140V91.67h10.4V140Z"/><path class="cls-1" d="M116.12,132.6a16.25,16.25,0,0,1-6.73,6,22.62,22.62,0,0,1-10.12,2.12,19.84,19.84,0,0,1-10.76-2.84,18.22,18.22,0,0,1-7-8.1,29.65,29.65,0,0,1-2.41-12.4v-3A28.86,28.86,0,0,1,81.63,102a18.8,18.8,0,0,1,7-8.16A19.63,19.63,0,0,1,99.3,91a22,22,0,0,1,10.19,2.19,16.11,16.11,0,0,1,6.59,6.06,20.69,20.69,0,0,1,2.81,9H108.5c-.2-2.92-1-5.1-2.41-6.53s-3.67-2.14-6.79-2.14a8.06,8.06,0,0,0-7.24,3.59q-2.36,3.59-2.36,11.22v3a29.86,29.86,0,0,0,1,8.39,9.17,9.17,0,0,0,3,4.83,8.94,8.94,0,0,0,5.55,1.59q4.47,0,6.69-2t2.5-6.29h10.4A18.62,18.62,0,0,1,116.12,132.6Z"/><path class="cls-1" d="M168.86,91.67V140h-10.4V119.49H139.64V140H129.21V91.67h10.43v19.42h18.82V91.67Z"/><path class="cls-1" d="M213.94,131.61V140H181.3V91.67h32.61v8.43H191.73v11h18.89v8.13H191.73v12.39Z"/><path class="cls-1" d="M31,167.57a20.32,20.32,0,0,1,7.85,8.17,25,25,0,0,1,2.83,12v2.13a24.91,24.91,0,0,1-2.83,12A20.19,20.19,0,0,1,31,210.1,22.68,22.68,0,0,1,19.42,213h-15V164.67H19.49A22.54,22.54,0,0,1,31,167.57Zm.08,20.14q0-7.17-2.95-10.89t-8.63-3.72H14.84v31.51h4.58c3.79,0,6.67-1.26,8.67-3.77s3-6.16,3-10.94Z"/><path class="cls-1" d="M85.29,204.61V213H52.65V164.67H85.26v8.43H63.08v11H82v8.13H63.08v12.39Z"/><path class="cls-1" d="M102.34,189.32a16.9,16.9,0,0,1-5.66-4.87,12.18,12.18,0,0,1,.18-14,14.82,14.82,0,0,1,6.39-4.75,24.33,24.33,0,0,1,9.33-1.68,22,22,0,0,1,9.33,1.88,14.67,14.67,0,0,1,6.28,5.28,13.92,13.92,0,0,1,2.22,7.78H120a6.35,6.35,0,0,0-1.94-4.86,8.08,8.08,0,0,0-5.7-1.81,10.52,10.52,0,0,0-4.07.7,5.55,5.55,0,0,0-2.52,1.91,4.63,4.63,0,0,0-.85,2.7,4.5,4.5,0,0,0,2.29,3.77,28.46,28.46,0,0,0,7.11,3q8.13,2.49,12.1,6.22a12.57,12.57,0,0,1,4,9.58,12.22,12.22,0,0,1-2.16,7.26,13.44,13.44,0,0,1-6.12,4.63,25,25,0,0,1-9.32,1.59,26,26,0,0,1-9.61-1.76,16.8,16.8,0,0,1-7.32-5.39,14.13,14.13,0,0,1-2.82-8.92h10.46q0,4.16,2.4,6c1.61,1.22,3.9,1.84,6.89,1.84a8.53,8.53,0,0,0,5.36-1.43,4.53,4.53,0,0,0,1.81-3.75,5.32,5.32,0,0,0-.73-2.89,7,7,0,0,0-2.69-2.22,35.35,35.35,0,0,0-5.77-2.3A48.9,48.9,0,0,1,102.34,189.32Z"/><path class="cls-1" d="M141.7,213V164.67h10.39V213Z"/><path class="cls-1" d="M200,210.05a23.21,23.21,0,0,1-6.21,2.58,33,33,0,0,1-8.7,1A21.67,21.67,0,0,1,174,210.92a18.58,18.58,0,0,1-7.37-8A28,28,0,0,1,164,190.27v-2.83a29,29,0,0,1,2.54-12.65,18.55,18.55,0,0,1,7.14-8A20.34,20.34,0,0,1,184.39,164q9.13,0,13.81,4.31t5.51,11.89H193.62a9.72,9.72,0,0,0-2.66-5.81q-2.09-2-6.27-2a8.54,8.54,0,0,0-7.52,3.82q-2.61,3.81-2.61,11.19v2.89q0,7.42,2.81,11.22t8.32,3.78q5.31,0,7.63-2.25v-8h-8.8v-7.57h19.23v19.49A16.14,16.14,0,0,1,200,210.05Z"/><path class="cls-1" d="M244.78,213,226,181.83V213H215.56V164.67H226l18.79,31.17V164.67h10.4V213Z"/><path class="cls-1" d="M40,278.6a16.25,16.25,0,0,1-6.73,5.95,22.62,22.62,0,0,1-10.12,2.12,19.84,19.84,0,0,1-10.76-2.84,18.16,18.16,0,0,1-7-8.1A29.65,29.65,0,0,1,3,263.33v-2.95A28.86,28.86,0,0,1,5.47,248a18.8,18.8,0,0,1,7-8.16A19.63,19.63,0,0,1,23.14,237a22,22,0,0,1,10.19,2.19,16.11,16.11,0,0,1,6.59,6.06,20.69,20.69,0,0,1,2.81,8.95H32.34c-.2-2.92-1-5.1-2.41-6.53s-3.67-2.14-6.79-2.14a8.06,8.06,0,0,0-7.24,3.59q-2.36,3.58-2.36,11.22v3a29.86,29.86,0,0,0,1,8.39,9.17,9.17,0,0,0,3,4.83,8.94,8.94,0,0,0,5.55,1.59q4.47,0,6.69-2t2.5-6.29H42.7A18.62,18.62,0,0,1,40,278.6Z"/><path class="cls-1" d="M90.49,275.52a19.36,19.36,0,0,1-7.29,8.26,20.09,20.09,0,0,1-10.79,2.89,20.28,20.28,0,0,1-10.83-2.89,19.31,19.31,0,0,1-7.33-8.26,28.47,28.47,0,0,1-2.63-12.62v-2.09a28.59,28.59,0,0,1,2.63-12.64,19.43,19.43,0,0,1,7.3-8.28A20.09,20.09,0,0,1,72.34,237a20.19,20.19,0,0,1,10.81,2.89,19.47,19.47,0,0,1,7.32,8.28,28.59,28.59,0,0,1,2.62,12.64v2.09A28.75,28.75,0,0,1,90.49,275.52Zm-10.61-26a9.25,9.25,0,0,0-15.08,0q-2.61,3.88-2.62,11.29v2.16q0,7.34,2.66,11.29a8.59,8.59,0,0,0,7.57,3.95,8.48,8.48,0,0,0,7.5-3.95q2.63-3.94,2.63-11.29v-2.16Q82.54,253.38,79.88,249.47Z"/><path class="cls-1" d="M133.3,286l-18.79-31.18V286H104.08V237.67h10.43l18.79,31.17V237.67h10.39V286Z"/><path class="cls-1" d="M166.56,246.1v12h19v8.37h-19V286H156.14V237.67h31.74v8.43Z"/><path class="cls-1" d="M230.11,277.61V286H197.47V237.67h32.61v8.43H207.9v11h18.89v8.13H207.9v12.39Z"/><path class="cls-1" d="M277.79,285.51v.5H266.63l-8.9-17.47h-7.54V286H239.77V237.67H258a25.06,25.06,0,0,1,9.65,1.67,13.31,13.31,0,0,1,6.19,4.95,14.16,14.16,0,0,1,2.16,8,14.6,14.6,0,0,1-2.23,8.42,15,15,0,0,1-6.37,5.16Zm-27.6-25.4H258a7.84,7.84,0,0,0,5.65-1.86,6.78,6.78,0,0,0,1.92-5.11,6.9,6.9,0,0,0-1.91-5.18A7.8,7.8,0,0,0,258,246.1h-7.84Z"/><path class="cls-1" d="M320.15,277.61V286H287.51V237.67h32.61v8.43H297.94v11h18.89v8.13H297.94v12.39Z"/><path class="cls-1" d="M359,286l-18.8-31.18V286H329.81V237.67h10.42L359,268.84V237.67h10.39V286Z"/><path class="cls-1" d="M417.41,278.6a16.22,16.22,0,0,1-6.72,5.95,22.66,22.66,0,0,1-10.13,2.12,19.84,19.84,0,0,1-10.76-2.84,18.14,18.14,0,0,1-6.95-8.1,29.5,29.5,0,0,1-2.41-12.4v-2.95a28.86,28.86,0,0,1,2.49-12.4,18.8,18.8,0,0,1,7-8.16A19.57,19.57,0,0,1,400.59,237a22,22,0,0,1,10.2,2.19,16.18,16.18,0,0,1,6.59,6.06,20.68,20.68,0,0,1,2.8,8.95H409.79q-.3-4.38-2.41-6.53c-1.4-1.42-3.67-2.14-6.79-2.14a8.08,8.08,0,0,0-7.24,3.59Q391,252.68,391,260.31v3a30.28,30.28,0,0,0,1,8.39,9.12,9.12,0,0,0,3.06,4.83,8.91,8.91,0,0,0,5.54,1.59q4.49,0,6.69-2t2.51-6.29h10.39A18.4,18.4,0,0,1,417.41,278.6Z"/><path class="cls-1" d="M463.14,277.61V286H430.51V237.67h32.6v8.43H440.93v11h18.89v8.13H440.93v12.39Z"/></svg>
